<svg width="0" height="0" class="hidden">
  <symbol xmlns="http://www.w3.org/2000/svg" viewBox="0 0 24 24" id="media">
    <path d="M4 6H2v14c0 1.1.9 2 2 2h14v-2H4V6zm16-4H8c-1.1 0-2 .9-2 2v12c0 1.1.9 2 2 2h12c1.1 0 2-.9 2-2V4c0-1.1-.9-2-2-2zm0 14H8V4h12v12zM12 5.5v9l6-4.5-6-4.5z"></path>
  </symbol>

  <symbol xmlns="http://www.w3.org/2000/svg" viewBox="0 0 24 24" id="playlists">
    <path fill-rule="evenodd" clip-rule="evenodd" d="M3 6h11v2H3V6zm0 4h11v2H3v-2zm7 4H3v2h7v-2zm12 3l-6 4v-8l6 4z"></path>
  </symbol>

  <symbol fill="none" xmlns="http://www.w3.org/2000/svg" viewBox="0 0 18 18" id="addPlaylist">
    <path fill-rule="evenodd" clip-rule="evenodd" d="M2.69995 4.5H10.7999V5.85H2.69995V4.5ZM2.69995 10.125H8.09995V11.475H2.69995V10.125ZM10.7999 7.308H2.69995V8.658H10.7999V7.308ZM13.2751 7.19999V10.125H16.2001V11.475H13.2751V14.4H11.9251V11.475H9.00006V10.125H11.9251V7.19999H13.2751Z" fill="#343A40"></path>
  </symbol>

  <symbol xmlns="http://www.w3.org/2000/svg" viewBox="0 -960 960 960" id="book">
    <path d="M240-80q-33 0-56.5-23.5T160-160v-640q0-33 23.5-56.5T240-880h480q33 0 56.5 23.5T800-800v640q0 33-23.5 56.5T720-80H240Zm0-80h480v-640h-80v280l-100-60-100 60v-280H240v640Zm0 0v-640 640Zm200-360 100-60 100 60-100-60-100 60Z"/>
  </symbol>

<symbol fill="none" xmlns="http://www.w3.org/2000/svg" viewBox="0 0 14 11" id="checkbox">
<path fill-rule="evenodd" clip-rule="evenodd" d="M13.4133 0.822371C13.8566 1.25774 13.863 1.97002 13.4276 2.4133L5.69325 10.2883C5.48172 10.5037 5.1925 10.625 4.89061 10.625C4.58872 10.625 4.2995 10.5037 4.08797 10.2883L0.572349 6.70852C0.136997 6.26523 0.143434 5.55295 0.586727 5.1176C1.03002 4.68225 1.7423 4.68868 2.17765 5.13198L4.89065 7.89446L11.8224 0.836704C12.2577 0.393424 12.97 0.387007 13.4133 0.822371Z" fill="#343A40"></path>
</symbol>

  <symbol xmlns="http://www.w3.org/2000/svg" viewBox="0 0 24 24" id="upline">
    <path d="M16 6l2.29 2.29-4.88 4.88-4-4L2 16.59 3.41 18l6-6 4 4 6.3-6.29L22 12V6h-6z"></path>
  </symbol>

  <symbol xmlns="http://www.w3.org/2000/svg" viewBox="0 0 24 24" id="download">
    <path d="M18 15v3H6v-3H4v3c0 1.1.9 2 2 2h12c1.1 0 2-.9 2-2v-3h-2zm-1-4l-1.41-1.41L13 12.17V4h-2v8.17L8.41 9.59 7 11l5 5 5-5z"></path>
  </symbol>

  <symbol xmlns="http://www.w3.org/2000/svg" viewBox="0 0 24 24" id="history">
    <path d="M13 3a9 9 0 00-9 9H1l3.89 3.89.07.14L9 12H6c0-3.87 3.13-7 7-7s7 3.13 7 7-3.13 7-7 7c-1.93 0-3.68-.79-4.94-2.06l-1.42 1.42A8.954 8.954 0 0013 21a9 9 0 000-18zm-1 5v5l4.25 2.52.77-1.28-3.52-2.09V8H12z"></path>
  </symbol>

  <symbol xmlns="http://www.w3.org/2000/svg" viewBox="0 0 24 24" id="statistic">
    <path fill-rule="evenodd" clip-rule="evenodd" d="M19 3H5c-1.1 0-2 .9-2 2v14c0 1.1.9 2 2 2h14c1.1 0 2-.9 2-2V5c0-1.1-.9-2-2-2zm0 16H5V5h14v14zM9 12H7v5h2v-5zm6-5h2v10h-2V7zm-2 7h-2v3h2v-3zm-2-4h2v2h-2v-2z"></path>
  </symbol>

  <symbol xmlns="http://www.w3.org/2000/svg" viewBox="0 0 24 24" id="donate">
    <path d="M20 6h-2.18c.11-.31.18-.65.18-1a2.996 2.996 0 00-5.5-1.65l-.5.67-.5-.68C10.96 2.54 10.05 2 9 2 7.34 2 6 3.34 6 5c0 .35.07.69.18 1H4c-1.11 0-1.99.89-1.99 2L2 19c0 1.11.89 2 2 2h16c1.11 0 2-.89 2-2V8c0-1.11-.89-2-2-2zm-5-2c.55 0 1 .45 1 1s-.45 1-1 1-1-.45-1-1 .45-1 1-1zM9 4c.55 0 1 .45 1 1s-.45 1-1 1-1-.45-1-1 .45-1 1-1zm11 15H4v-2h16v2zm0-5H4V8h5.08L7 10.83 8.62 12 12 7.4l3.38 4.6L17 10.83 14.92 8H20v6z"></path>
  </symbol>

  <symbol xmlns="http://www.w3.org/2000/svg" viewBox="0 0 16 16" id="filter">
    <path d="M.5 12.167v1.666h5v-1.666h-5zm0-10v1.666h8.333V2.167H.5zM8.833 15.5v-1.667H15.5v-1.666H8.833V10.5H7.167v5h1.666zm-5-10v1.667H.5v1.666h3.333V10.5H5.5v-5H3.833zM15.5 8.833V7.167H7.167v1.666H15.5zm-5-3.333h1.667V3.833H15.5V2.167h-3.333V.5H10.5v5z"></path>
  </symbol>

  <symbol fill="none" xmlns="http://www.w3.org/2000/svg" viewBox="0 0 24 24" id="google">
    <rect width="24" height="24" rx="4" fill="#fff"></rect>
    <path fill="#fff" d="M2 2h19.575v20H2z"></path>
    <path d="M21.575 12.225a11.6 11.6 0 00-.158-1.892H12v3.759h5.392c-.242 1.233-.95 2.275-2 2.983v2.5h3.216c1.884-1.742 2.967-4.308 2.967-7.35z" fill="#4285F4"></path>
    <path d="M12 22c2.7 0 4.958-.9 6.608-2.425l-3.216-2.5c-.9.6-2.042.967-3.392.967-2.608 0-4.817-1.759-5.608-4.134H3.075v2.575C4.717 19.75 8.092 22 12 22z" fill="#34A853"></path>
    <path d="M6.392 13.908A5.803 5.803 0 016.075 12c0-.667.117-1.308.317-1.908V7.517H3.075a9.884 9.884 0 000 8.966l3.317-2.575z" fill="#FBBC05"></path>
    <path d="M12 5.958c1.475 0 2.792.509 3.833 1.5l2.85-2.85C16.958 2.992 14.7 2 12 2 8.092 2 4.717 4.25 3.075 7.517l3.317 2.575c.791-2.375 3-4.134 5.608-4.134z" fill="#EA4335"></path>
  </symbol>

  <symbol fill="none" xmlns="http://www.w3.org/2000/svg" viewBox="0 0 24 24" id="facebook">
    <path d="M2.5 2a.5.5 0 00-.5.5v19a.5.5 0 00.5.5h10.151v-7.726h-2.604v-3.153h2.604V8.472a3.488 3.488 0 013.488-3.488h2.722V7.82h-1.948c-.612 0-1.108.496-1.108 1.108v2.193h3.007l-.416 3.153h-2.591V22H21.5a.5.5 0 00.5-.5v-19a.5.5 0 00-.5-.5h-19z" fill="#3A559F"></path>
  </symbol>

  <symbol fill="none" xmlns="http://www.w3.org/2000/svg" id="apple">
    <path fill-rule="evenodd" clip-rule="evenodd" d="M15.644 2H15.5c-1.064.14-2.175.772-2.781 1.482-.653.761-1.193 1.737-1.098 3.127 1.422.112 2.301-.624 2.943-1.381.654-.764 1.193-1.818 1.079-3.228zm4.161 14.72v-.04c-1.39-.66-2.504-1.78-2.659-3.696-.174-2.109.844-3.343 2.131-4.163-.667-1.043-1.747-1.72-3.27-1.95-1.168-.175-2.077.157-2.981.488l-.226.082c-.08.03-.162.062-.243.095-.252.101-.502.202-.753.21-.384.011-.785-.16-1.14-.31a9.113 9.113 0 00-.281-.117c-.437-.165-.935-.332-1.422-.407-1.137-.174-2.159.215-2.902.672-1.408.859-2.467 2.631-2.559 4.81v.896c.218 3.045 1.388 5.425 2.903 7.268.514.623 1.22 1.316 2.093 1.442h.406c.509-.072.93-.235 1.349-.396.56-.216 1.113-.43 1.858-.417.612.01 1.117.206 1.618.401.506.197 1.007.392 1.61.392 1.322 0 2.09-1.064 2.709-1.92l.094-.13c.696-.962 1.266-2 1.665-3.21z" fill="#000"></path>
  </symbol>

  <symbol xmlns="http://www.w3.org/2000/svg" xmlns:xlink="http://www.w3.org/1999/xlink" xmlnsSvgjs="http://svgjs.com/svgjs" version="1.1" x="0" y="0" xml:space="preserve" viewBox="0 0 412.735 412.735" id="heart-filled">
    <g>
      <g xmlns="http://www.w3.org/2000/svg">
        <path d="M295.706,46.058C354.45,46.344,402,93.894,402.286,152.638   c0,107.624-195.918,214.204-195.918,214.204S10.449,258.695,10.449,152.638c0-58.862,47.717-106.58,106.58-106.58l0,0   c36.032-0.281,69.718,17.842,89.339,48.065C226.123,64.047,259.722,45.971,295.706,46.058z" fill="#ffffff" data-original="#d7443e"></path>
        <path d="M206.367,377.291c-1.854-0.024-3.664-0.567-5.224-1.567C193.306,371.544,0,263.397,0,152.638   C0,88.005,52.395,35.609,117.029,35.609l0,0c34.477-0.406,67.299,14.757,89.339,41.273   c41.749-49.341,115.591-55.495,164.932-13.746c26.323,22.273,41.484,55.02,41.436,89.501   c0,112.327-193.306,218.906-201.143,223.086C210.031,376.723,208.221,377.266,206.367,377.291z M117.029,56.507   c-53.091,0-96.131,43.039-96.131,96.131l0,0c0,89.861,155.167,184.424,185.469,202.188   c30.302-17.241,185.469-111.282,185.469-202.188c0.087-53.091-42.881-96.201-95.972-96.289   c-32.501-0.053-62.829,16.319-80.615,43.521c-3.557,4.905-10.418,5.998-15.323,2.44c-0.937-0.68-1.761-1.503-2.44-2.44   C179.967,72.479,149.541,56.08,117.029,56.507z" fill="#ff0000" data-original="#083863"></path>
      </g>
      <g xmlns="http://www.w3.org/2000/svg"></g>
      <g xmlns="http://www.w3.org/2000/svg"></g>
      <g xmlns="http://www.w3.org/2000/svg"></g>
      <g xmlns="http://www.w3.org/2000/svg"></g>
      <g xmlns="http://www.w3.org/2000/svg"></g>
      <g xmlns="http://www.w3.org/2000/svg"></g>
      <g xmlns="http://www.w3.org/2000/svg"></g>
      <g xmlns="http://www.w3.org/2000/svg"></g>
      <g xmlns="http://www.w3.org/2000/svg"></g>
      <g xmlns="http://www.w3.org/2000/svg"></g>
      <g xmlns="http://www.w3.org/2000/svg"></g>
      <g xmlns="http://www.w3.org/2000/svg"></g>
      <g xmlns="http://www.w3.org/2000/svg"></g>
      <g xmlns="http://www.w3.org/2000/svg"></g>
      <g xmlns="http://www.w3.org/2000/svg"></g>
    </g>
  </symbol>

  <symbol version="1.1" id="about" xmlns="http://www.w3.org/2000/svg" xmlns:xlink="http://www.w3.org/1999/xlink" x="0px" y="0px" xml:space="preserve" viewBox="0 0 111.577 111.577">
    <g>
      <path d="M78.962,99.536l-1.559,6.373c-4.677,1.846-8.413,3.251-11.195,4.217c-2.785,0.969-6.021,1.451-9.708,1.451
		c-5.662,0-10.066-1.387-13.207-4.142c-3.141-2.766-4.712-6.271-4.712-10.523c0-1.646,0.114-3.339,0.351-5.064
		c0.239-1.727,0.619-3.672,1.139-5.846l5.845-20.688c0.52-1.981,0.962-3.858,1.316-5.633c0.359-1.764,0.532-3.387,0.532-4.848
		c0-2.642-0.547-4.49-1.636-5.529c-1.089-1.036-3.167-1.562-6.252-1.562c-1.511,0-3.064,0.242-4.647,0.71
		c-1.59,0.47-2.949,0.924-4.09,1.346l1.563-6.378c3.829-1.559,7.489-2.894,10.99-4.002c3.501-1.111,6.809-1.667,9.938-1.667
		c5.623,0,9.962,1.359,13.009,4.077c3.047,2.72,4.57,6.246,4.57,10.591c0,0.899-0.1,2.483-0.315,4.747
		c-0.21,2.269-0.601,4.348-1.171,6.239l-5.82,20.605c-0.477,1.655-0.906,3.547-1.279,5.676c-0.385,2.115-0.569,3.731-0.569,4.815
		c0,2.736,0.61,4.604,1.833,5.597c1.232,0.993,3.354,1.487,6.368,1.487c1.415,0,3.025-0.251,4.814-0.744
		C76.854,100.348,78.155,99.915,78.962,99.536z M80.438,13.03c0,3.59-1.353,6.656-4.072,9.177c-2.712,2.53-5.98,3.796-9.803,3.796
		c-3.835,0-7.111-1.266-9.854-3.796c-2.738-2.522-4.11-5.587-4.11-9.177c0-3.583,1.372-6.654,4.11-9.207
		C59.447,1.274,62.729,0,66.563,0c3.822,0,7.091,1.277,9.803,3.823C79.087,6.376,80.438,9.448,80.438,13.03z"></path>
    </g>
    <g></g>
    <g></g>
    <g></g>
    <g></g>
    <g></g>
    <g></g>
    <g></g>
    <g></g>
    <g></g>
    <g></g>
    <g></g>
    <g></g>
    <g></g>
    <g></g>
    <g></g>
  </symbol>

  <symbol fill="none" xmlns="http://www.w3.org/2000/svg" viewBox="0 0 16 15" id="heart">
    <path d="M11.375 0.25C10.07 0.25 8.8175 0.8575 8 1.8175C7.1825 0.8575 5.93 0.25 4.625 0.25C2.315 0.25 0.5 2.065 0.5 4.375C0.5 7.21 3.05 9.52 6.9125 13.03L8 14.0125L9.0875 13.0225C12.95 9.52 15.5 7.21 15.5 4.375C15.5 2.065 13.685 0.25 11.375 0.25ZM8.075 11.9125L8 11.9875L7.925 11.9125C4.355 8.68 2 6.5425 2 4.375C2 2.875 3.125 1.75 4.625 1.75C5.78 1.75 6.905 2.4925 7.3025 3.52H8.705C9.095 2.4925 10.22 1.75 11.375 1.75C12.875 1.75 14 2.875 14 4.375C14 6.5425 11.645 8.68 8.075 11.9125Z" fill="#343A40"></path>
  </symbol>

  <symbol fill="none" xmlns="http://www.w3.org/2000/svg" viewBox="0 0 12 14" id="reset">
    <path d="M1.5 7.875C1.5 6.6375 2.0025 5.5125 2.82 4.695L1.755 3.63C0.675 4.7175 0 6.2175 0 7.875C0 10.935 2.2875 13.455 5.25 13.8225V12.3075C3.1275 11.9475 1.5 10.1025 1.5 7.875ZM12 7.875C12 4.56 9.315 1.875 6 1.875C5.955 1.875 5.91 1.8825 5.865 1.8825L6.6825 1.065L5.625 0L3 2.625L5.625 5.25L6.6825 4.1925L5.8725 3.3825C5.9175 3.3825 5.9625 3.375 6 3.375C8.4825 3.375 10.5 5.3925 10.5 7.875C10.5 10.1025 8.8725 11.9475 6.75 12.3075V13.8225C9.7125 13.455 12 10.935 12 7.875Z" fill="#343A40"></path>
  </symbol>

  <symbol fill="none" xmlns="http://www.w3.org/2000/svg" viewBox="0 0 14 14" id="plus">
    <path d="M13 8H8V13C8 13.55 7.55 14 7 14C6.45 14 6 13.55 6 13V8H1C0.45 8 0 7.55 0 7C0 6.45 0.45 6 1 6H6V1C6 0.45 6.45 0 7 0C7.55 0 8 0.45 8 1V6H13C13.55 6 14 6.45 14 7C14 7.55 13.55 8 13 8Z" fill="#919191"></path>
  </symbol>

  <symbol version="1.1" id="share" xmlns="http://www.w3.org/2000/svg" xmlns:xlink="http://www.w3.org/1999/xlink" x="0px" y="0px" xml:space="preserve" viewBox="0 0 511.626 511.627">
    <g>
      <path d="M506.206,179.012L360.025,32.834c-3.617-3.617-7.898-5.426-12.847-5.426s-9.233,1.809-12.847,5.426
		c-3.617,3.619-5.428,7.902-5.428,12.85v73.089h-63.953c-135.716,0-218.984,38.354-249.823,115.06C5.042,259.335,0,291.03,0,328.907
		c0,31.594,12.087,74.514,36.259,128.762c0.57,1.335,1.566,3.614,2.996,6.849c1.429,3.233,2.712,6.088,3.854,8.565
		c1.146,2.471,2.384,4.565,3.715,6.276c2.282,3.237,4.948,4.859,7.994,4.859c2.855,0,5.092-0.951,6.711-2.854
		c1.615-1.902,2.424-4.284,2.424-7.132c0-1.718-0.238-4.236-0.715-7.569c-0.476-3.333-0.715-5.564-0.715-6.708
		c-0.953-12.938-1.429-24.653-1.429-35.114c0-19.223,1.668-36.449,4.996-51.675c3.333-15.229,7.948-28.407,13.85-39.543
		c5.901-11.14,13.512-20.745,22.841-28.835c9.325-8.09,19.364-14.702,30.118-19.842c10.756-5.141,23.413-9.186,37.974-12.135
		c14.56-2.95,29.215-4.997,43.968-6.14s31.455-1.711,50.109-1.711h63.953v73.091c0,4.948,1.807,9.232,5.421,12.847
		c3.62,3.613,7.901,5.424,12.847,5.424c4.948,0,9.232-1.811,12.854-5.424l146.178-146.183c3.617-3.617,5.424-7.898,5.424-12.847
		C511.626,186.92,509.82,182.636,506.206,179.012z"></path>
    </g>
    <g></g>
    <g></g>
    <g></g>
    <g></g>
    <g></g>
    <g></g>
    <g></g>
    <g></g>
    <g></g>
    <g></g>
    <g></g>
    <g></g>
    <g></g>
    <g></g>
    <g></g>
  </symbol>
</svg>



