<svg width="12" height="12" viewBox="0 0 12 12" fill="none" xmlns="http://www.w3.org/2000/svg">
<path d="M6.46867 5.27458L1.19752 1.08801C0.941774 0.959179 0.636522 0.973141 0.392829 1.12101C0.147866 1.26824 0 1.53097 0 1.81274V10.1884C0 10.4696 0.147866 10.7317 0.392829 10.8795C0.524829 10.9595 0.674599 11.0001 0.826273 11.0001C0.953831 11.0001 1.08076 10.9709 1.19816 10.9125L6.4693 6.72469C6.72315 6.48607 6.92369 6.30711 6.92369 5.99932C6.92369 5.69153 6.75297 5.52589 6.46867 5.27458Z" fill="#343A40"/>
<path d="M11.5455 5.27458L6.27433 1.08801C6.01858 0.959179 5.71269 0.973141 5.469 1.12101C5.22404 1.26824 5.07617 1.53097 5.07617 1.81274V10.1884C5.07617 10.4696 5.22404 10.7317 5.469 10.8795C5.601 10.9595 5.75077 11.0001 5.90244 11.0001C6.03 11.0001 6.15693 10.9709 6.27433 10.9125L11.5455 6.72469C11.7993 6.48607 11.9999 6.30711 11.9999 5.99932C11.9999 5.69153 11.8298 5.52589 11.5455 5.27458Z" fill="#343A40"/>
</svg>
