
 <svg width="0" height="0" class="hidden">
   <symbol fill="none" xmlns="http://www.w3.org/2000/svg" viewBox="0 0 16 15" id="like">
    <path d="M11.3749 0.25C10.0699 0.25 8.81738 0.8575 7.99988 1.8175C7.18238 0.8575 5.92988 0.25 4.62488 0.25C2.31488 0.25 0.499878 2.065 0.499878 4.375C0.499878 7.21 3.04988 9.52 6.91238 13.03L7.99988 14.0125L9.08738 13.0225C12.9499 9.52 15.4999 7.21 15.4999 4.375C15.4999 2.065 13.6849 0.25 11.3749 0.25ZM8.07488 11.9125L7.99988 11.9875L7.92488 11.9125C4.35488 8.68 1.99988 6.5425 1.99988 4.375C1.99988 2.875 3.12488 1.75 4.62488 1.75C5.77988 1.75 6.90488 2.4925 7.30238 3.52H8.70488C9.09488 2.4925 10.2199 1.75 11.3749 1.75C12.8749 1.75 13.9999 2.875 13.9999 4.375C13.9999 6.5425 11.6449 8.68 8.07488 11.9125Z" fill="#343A40"></path>
  </symbol>
  <symbol fill="none" xmlns="http://www.w3.org/2000/svg" viewBox="0 0 14 16" id="share">
    <path d="M11.5 11.06C10.93 11.06 10.42 11.285 10.03 11.6375L4.6825 8.525C4.72 8.3525 4.75 8.18 4.75 8C4.75 7.82 4.72 7.6475 4.6825 7.475L9.97 4.3925C10.375 4.7675 10.9075 5 11.5 5C12.745 5 13.75 3.995 13.75 2.75C13.75 1.505 12.745 0.5 11.5 0.5C10.255 0.5 9.25 1.505 9.25 2.75C9.25 2.93 9.28 3.1025 9.3175 3.275L4.03 6.3575C3.625 5.9825 3.0925 5.75 2.5 5.75C1.255 5.75 0.25 6.755 0.25 8C0.25 9.245 1.255 10.25 2.5 10.25C3.0925 10.25 3.625 10.0175 4.03 9.6425L9.37 12.7625C9.3325 12.92 9.31 13.085 9.31 13.25C9.31 14.4575 10.2925 15.44 11.5 15.44C12.7075 15.44 13.69 14.4575 13.69 13.25C13.69 12.0425 12.7075 11.06 11.5 11.06ZM11.5 2C11.9125 2 12.25 2.3375 12.25 2.75C12.25 3.1625 11.9125 3.5 11.5 3.5C11.0875 3.5 10.75 3.1625 10.75 2.75C10.75 2.3375 11.0875 2 11.5 2ZM2.5 8.75C2.0875 8.75 1.75 8.4125 1.75 8C1.75 7.5875 2.0875 7.25 2.5 7.25C2.9125 7.25 3.25 7.5875 3.25 8C3.25 8.4125 2.9125 8.75 2.5 8.75ZM11.5 14.015C11.0875 14.015 10.75 13.6775 10.75 13.265C10.75 12.8525 11.0875 12.515 11.5 12.515C11.9125 12.515 12.25 12.8525 12.25 13.265C12.25 13.6775 11.9125 14.015 11.5 14.015Z" fill="#343A40"></path>
  </symbol>
    <symbol fill="none" xmlns="http://www.w3.org/2000/svg" viewBox="0 0 14 11" id="complete">
    <path fill-rule="evenodd" clip-rule="evenodd" d="M13.4133 0.822371C13.8566 1.25774 13.863 1.97002 13.4276 2.4133L5.69325 10.2883C5.48172 10.5037 5.1925 10.625 4.89061 10.625C4.58872 10.625 4.2995 10.5037 4.08797 10.2883L0.572349 6.70852C0.136997 6.26523 0.143434 5.55295 0.586727 5.1176C1.03002 4.68225 1.7423 4.68868 2.17765 5.13198L4.89065 7.89446L11.8224 0.836704C12.2577 0.393424 12.97 0.387007 13.4133 0.822371Z" fill="#343A40"></path>
  </symbol>
    <symbol fill="none" xmlns="http://www.w3.org/2000/svg" viewBox="0 0 12 12" id="download">
    <path d="M10.5001 8.25V10.5H1.50012V8.25H0.00012207V10.5C0.00012207 11.325 0.675122 12 1.50012 12H10.5001C11.3251 12 12.0001 11.325 12.0001 10.5V8.25H10.5001ZM9.75012 5.25L8.69262 4.1925L6.75012 6.1275V0H5.25012V6.1275L3.30762 4.1925L2.25012 5.25L6.00012 9L9.75012 5.25Z" fill="#343A40"></path>
  </symbol>
    <symbol fill="none" xmlns="http://www.w3.org/2000/svg" viewBox="0 0 15 11" id="addToPL">
    <path fill-rule="evenodd" clip-rule="evenodd" d="M0.69989 0.5H8.79989V1.85H0.69989V0.5ZM0.69989 6.125H6.09989V7.475H0.69989V6.125ZM8.79989 3.308H0.69989V4.658H8.79989V3.308ZM11.275 3.19999V6.12499H14.2V7.47499H11.275V10.4H9.925V7.47499H7V6.12499H9.925V3.19999H11.275Z" fill="#343A40"></path>
  </symbol>
   <symbol fill="none" xmlns="http://www.w3.org/2000/svg" viewBox="0 0 12 14" id="reset">
    <path d="M1.5 7.875C1.5 6.6375 2.0025 5.5125 2.82 4.695L1.755 3.63C0.675 4.7175 0 6.2175 0 7.875C0 10.935 2.2875 13.455 5.25 13.8225V12.3075C3.1275 11.9475 1.5 10.1025 1.5 7.875ZM12 7.875C12 4.56 9.315 1.875 6 1.875C5.955 1.875 5.91 1.8825 5.865 1.8825L6.6825 1.065L5.625 0L3 2.625L5.625 5.25L6.6825 4.1925L5.8725 3.3825C5.9175 3.3825 5.9625 3.375 6 3.375C8.4825 3.375 10.5 5.3925 10.5 7.875C10.5 10.1025 8.8725 11.9475 6.75 12.3075V13.8225C9.7125 13.455 12 10.935 12 7.875Z" fill="#343A40"></path>
   </symbol>
  <symbol fill="none" xmlns="http://www.w3.org/2000/svg" viewBox="0 0 20 19" id="like-filled">
    <path d="M10 18.35L8.55 17.03C3.4 12.36 0 9.28 0 5.5C0 2.42 2.42 0 5.5 0C7.24 0 8.91 0.81 10 2.09C11.09 0.81 12.76 0 14.5 0C17.58 0 20 2.42 20 5.5C20 9.28 16.6 12.36 11.45 17.04L10 18.35Z" fill="#343A40"></path>
  </symbol>
   <symbol fill="none" xmlns="http://www.w3.org/2000/svg" viewBox="0 0 19 14" id="addPlaylist">
    <path d="M11 4H0V6H11V4ZM11 0H0V2H11V0ZM15 8V4H13V8H9V10H13V14H15V10H19V8H15ZM0 10H7V8H0V10Z" fill="#919191"></path>
  </symbol>
  </svg>