<svg width="16" height="15" viewBox="0 0 16 15" fill="none" xmlns="http://www.w3.org/2000/svg">
<path d="M11.3749 0.25C10.0699 0.25 8.81738 0.8575 7.99988 1.8175C7.18238 0.8575 5.92988 0.25 4.62488 0.25C2.31488 0.25 0.499878 2.065 0.499878 4.375C0.499878 7.21 3.04988 9.52 6.91238 13.03L7.99988 14.0125L9.08738 13.0225C12.9499 9.52 15.4999 7.21 15.4999 4.375C15.4999 2.065 13.6849 0.25 11.3749 0.25ZM8.07488 11.9125L7.99988 11.9875L7.92488 11.9125C4.35488 8.68 1.99988 6.5425 1.99988 4.375C1.99988 2.875 3.12488 1.75 4.62488 1.75C5.77988 1.75 6.90488 2.4925 7.30238 3.52H8.70488C9.09488 2.4925 10.2199 1.75 11.3749 1.75C12.8749 1.75 13.9999 2.875 13.9999 4.375C13.9999 6.5425 11.6449 8.68 8.07488 11.9125Z" fill="#343A40"/>
</svg>
