<svg width="24" height="24" viewBox="0 0 25 24" fill="none" xmlns="http://www.w3.org/2000/svg">
<mask id="mask0_19_1810" style="mask-type:alpha" maskUnits="userSpaceOnUse" x="0" y="0" width="25" height="24">
<rect x="0.145752" width="24" height="24" fill="#D9D9D9"/>
</mask>
<g mask="url(#mask0_19_1810)">
<path d="M14.8958 20L16.8958 22H6.14575C5.59575 22 5.12492 21.8042 4.73325 21.4125C4.34159 21.0208 4.14575 20.55 4.14575 20V4C4.14575 3.45 4.34159 2.97917 4.73325 2.5875C5.12492 2.19583 5.59575 2 6.14575 2H15.1458L20.1458 8V20C20.1458 20.3333 20.0749 20.6375 19.9333 20.9125C19.7916 21.1875 19.5958 21.4167 19.3458 21.6L14.1458 16.45C13.8624 16.6333 13.5541 16.7708 13.2208 16.8625C12.8874 16.9542 12.5291 17 12.1458 17C11.0458 17 10.1041 16.6083 9.32075 15.825C8.53742 15.0417 8.14575 14.1 8.14575 13C8.14575 11.9 8.53742 10.9583 9.32075 10.175C10.1041 9.39167 11.0458 9 12.1458 9C13.2458 9 14.1874 9.39167 14.9708 10.175C15.7541 10.9583 16.1458 11.9 16.1458 13C16.1458 13.3833 16.0999 13.7417 16.0083 14.075C15.9166 14.4083 15.7791 14.7167 15.5958 15L18.1458 17.6V8.7L14.1958 4H6.14575V20H14.8958ZM12.1458 15C12.6958 15 13.1666 14.8042 13.5583 14.4125C13.9499 14.0208 14.1458 13.55 14.1458 13C14.1458 12.45 13.9499 11.9792 13.5583 11.5875C13.1666 11.1958 12.6958 11 12.1458 11C11.5958 11 11.1249 11.1958 10.7333 11.5875C10.3416 11.9792 10.1458 12.45 10.1458 13C10.1458 13.55 10.3416 14.0208 10.7333 14.4125C11.1249 14.8042 11.5958 15 12.1458 15Z" fill="#FD7E14"/>
</g>
</svg>
