<svg width="12" height="12" viewBox="0 0 12 12" fill="none" xmlns="http://www.w3.org/2000/svg">
<path d="M5.53133 5.27458L10.8025 1.08801C11.0582 0.959179 11.3635 0.973141 11.6072 1.12101C11.8521 1.26824 12 1.53097 12 1.81274V10.1884C12 10.4696 11.8521 10.7317 11.6072 10.8795C11.4752 10.9595 11.3254 11.0001 11.1737 11.0001C11.0462 11.0001 10.9192 10.9709 10.8018 10.9125L5.5307 6.72469C5.27685 6.48607 5.07631 6.30711 5.07631 5.99932C5.07631 5.69153 5.24703 5.52589 5.53133 5.27458Z" fill="#909090"/>
<path d="M0.454527 5.27458L5.72567 1.08801C5.98142 0.959179 6.28731 0.973141 6.531 1.12101C6.77596 1.26824 6.92383 1.53097 6.92383 1.81274V10.1884C6.92383 10.4696 6.77596 10.7317 6.531 10.8795C6.399 10.9595 6.24923 11.0001 6.09756 11.0001C5.97 11.0001 5.84307 10.9709 5.72567 10.9125L0.454527 6.72469C0.20068 6.48607 0.000140811 6.30711 0.000140811 5.99932C0.000140811 5.69153 0.170218 5.52589 0.454527 5.27458Z" fill="#909090"/>
</svg>
